<?xml version="1.0" encoding="UTF-8" standalone="no"?>
<!-- Created with Inkscape (http://www.inkscape.org/) -->

<svg
   width="96.572914mm"
   height="96.572914mm"
   viewBox="0 0 96.572914 96.572914"
   version="1.1"
   id="svg5"
   inkscape:version="1.2.2 (b0a8486541, 2022-12-01)"
   sodipodi:docname="logo2-32m.svg"
   xmlns:inkscape="http://www.inkscape.org/namespaces/inkscape"
   xmlns:sodipodi="http://sodipodi.sourceforge.net/DTD/sodipodi-0.dtd"
   xmlns="http://www.w3.org/2000/svg"
   xmlns:svg="http://www.w3.org/2000/svg">
  <sodipodi:namedview
     id="namedview7"
     pagecolor="#505050"
     bordercolor="#eeeeee"
     borderopacity="1"
     inkscape:showpageshadow="0"
     inkscape:pageopacity="0"
     inkscape:pagecheckerboard="0"
     inkscape:deskcolor="#505050"
     inkscape:document-units="px"
     showgrid="false"
     inkscape:zoom="1.2204287"
     inkscape:cx="187.63898"
     inkscape:cy="96.687336"
     inkscape:window-width="958"
     inkscape:window-height="1047"
     inkscape:window-x="960"
     inkscape:window-y="31"
     inkscape:window-maximized="1"
     inkscape:current-layer="svg5"
     showguides="true"
     inkscape:lockguides="false">
    <sodipodi:guide
       position="132.38559,-85.927084"
       orientation="0,1"
       id="guide450"
       inkscape:locked="false"
       inkscape:label=""
       inkscape:color="rgb(0,134,229)" />
  </sodipodi:namedview>
  <defs
     id="defs2" />
  <circle
     style="display:inline;fill:#000000;stroke-width:0.175694"
     id="path113"
     cx="48.286457"
     cy="48.286457"
     r="48.286457"
     sodipodi:insensitive="true" />
  <path
     id="path7748"
     style="display:inline;fill:#ffffff;stroke-width:0.638286"
     d="m 30.076716,26.901716 a 21.384947,21.384947 0 0 0 -21.3852571,21.384741 21.384947,21.384947 0 0 0 0.9834025,6.35 h 6.7835646 a 15.034947,15.034947 0 0 1 -1.416967,-6.35 15.034947,15.034947 0 0 1 15.035257,-15.034741 15.034947,15.034947 0 0 1 15.034741,15.034741 15.034947,15.034947 0 0 1 -1.416968,6.35 h 9.183936 a 15.034947,15.034947 0 0 1 -1.416968,-6.35 15.034947,15.034947 0 0 1 15.034741,-15.034741 15.034947,15.034947 0 0 1 15.035257,15.034741 15.034947,15.034947 0 0 1 -1.416967,6.35 h 6.783565 a 21.384947,21.384947 0 0 0 0.983402,-6.35 A 21.384947,21.384947 0 0 0 66.496198,26.901716 21.384947,21.384947 0 0 0 48.286457,37.101094 21.384947,21.384947 0 0 0 30.076716,26.901716 Z m 0,15.034741 a 6.3499999,6.3500004 0 0 0 -6.35,6.35 6.3499999,6.3500004 0 0 0 6.35,6.35 6.3499999,6.3500004 0 0 0 6.35,-6.35 6.3499999,6.3500004 0 0 0 -6.35,-6.35 z m 36.419482,0 a 6.3499999,6.3500004 0 0 0 -6.35,6.35 6.3499999,6.3500004 0 0 0 6.35,6.35 6.3499999,6.3500004 0 0 0 6.35,-6.35 6.3499999,6.3500004 0 0 0 -6.35,-6.35 z"
     inkscape:label="path7748"
     sodipodi:insensitive="true" />
</svg>
